# xmcd
#
# Track frame offsets: 
#        150
#        15265
#        30560
#        45852
#        56897
#        66937
#        80285
#        92982
#
# Disc length: 1477 seconds
#
# Revision: 0
# Processed by: cddbd v1.5.1PL2 Copyright (c) Steve Scherf et al.
# Submitted via: ExactAudioCopy v0.95b2
#
DISCID=5805c308
DTITLE=The Self - Titled
DYEAR=1993
DGENRE=Blues
TTITLE0=Band Wagon Blues
TTITLE1=Robert Maxwell (R.I.P.)
TTITLE2=Take A Step To The Edge
TTITLE3=Last Breath
TTITLE4=Vanish In The Dust
TTITLE5=You've Got To Be Joking
TTITLE6=Matters Of Interest
TTITLE7=You Might Think I'm Dreaming
EXTD=
EXTT0=
EXTT1=
EXTT2=
EXTT3=
EXTT4=
EXTT5=
EXTT6=
EXTT7=
PLAYORDER=
